<svg width="1200" height="630" viewBox="0 0 1200 630" fill="none" xmlns="http://www.w3.org/2000/svg">
  <rect width="1200" height="630" fill="#1A202C"/>
  <g opacity="0.8">
    <circle cx="100" cy="120" r="60" fill="#8B5CF6"/>
    <circle cx="1100" cy="510" r="80" fill="#EC4899"/>
    <rect x="50" y="200" width="80" height="80" rx="8" fill="#F59E0B"/>
    <path d="M400 80L500 180L400 280L300 180L400 80Z" fill="#10B981"/>
    <path d="M200 350L300 450L200 550L100 450L200 350Z" fill="#3B82F6"/>
  </g>
  
  <!-- ERC-3643 Logo -->
  <g transform="translate(500, 200)">
    <rect x="-100" y="-50" width="200" height="100" rx="20" fill="#8B5CF6" opacity="0.9"/>
    <text x="0" y="-10" text-anchor="middle" fill="white" font-family="Arial, sans-serif" font-size="24" font-weight="bold">ERC-3643</text>
    <text x="0" y="15" text-anchor="middle" fill="white" font-family="Arial, sans-serif" font-size="16">Security Tokens</text>
  </g>
  
  <!-- Security Shield -->
  <g transform="translate(200, 300)">
    <path d="M0 0L40 -20L80 0L80 40L40 80L0 40Z" fill="#8B5CF6" opacity="0.8"/>
    <path d="M20 30L30 40L50 20" stroke="white" stroke-width="3" fill="none"/>
  </g>
  
  <!-- KYC/AML Icons -->
  <g transform="translate(400, 280)">
    <rect x="0" y="0" width="80" height="60" rx="8" fill="#1F2937" stroke="#8B5CF6" stroke-width="2"/>
    <circle cx="20" cy="20" r="8" fill="#10B981"/>
    <circle cx="40" cy="20" r="8" fill="#F59E0B"/>
    <circle cx="60" cy="20" r="8" fill="#EF4444"/>
    <text x="40" y="45" text-anchor="middle" fill="white" font-family="Arial, sans-serif" font-size="10" font-weight="bold">KYC</text>
  </g>
  
  <g transform="translate(500, 280)">
    <rect x="0" y="0" width="80" height="60" rx="8" fill="#1F2937" stroke="#8B5CF6" stroke-width="2"/>
    <rect x="15" y="15" width="50" height="30" rx="3" fill="#374151"/>
    <text x="40" y="35" text-anchor="middle" fill="white" font-family="Arial, sans-serif" font-size="10" font-weight="bold">AML</text>
  </g>
  
  <!-- Regulatory Compliance -->
  <g transform="translate(700, 300)">
    <rect x="0" y="0" width="120" height="80" rx="10" fill="#1F2937" stroke="#EC4899" stroke-width="2"/>
    <rect x="20" y="20" width="80" height="40" rx="5" fill="#374151"/>
    <text x="60" y="30" text-anchor="middle" fill="white" font-family="Arial, sans-serif" font-size="12" font-weight="bold">Regulatory</text>
    <text x="60" y="45" text-anchor="middle" fill="white" font-family="Arial, sans-serif" font-size="12" font-weight="bold">Compliance</text>
  </g>
  
  <!-- Token Types -->
  <g transform="translate(150, 450)">
    <rect x="0" y="0" width="60" height="40" rx="5" fill="#8B5CF6" opacity="0.7"/>
    <text x="30" y="25" text-anchor="middle" fill="white" font-family="Arial, sans-serif" font-size="10" font-weight="bold">Equity</text>
  </g>
  
  <g transform="translate(250, 450)">
    <rect x="0" y="0" width="60" height="40" rx="5" fill="#EC4899" opacity="0.7"/>
    <text x="30" y="25" text-anchor="middle" fill="white" font-family="Arial, sans-serif" font-size="10" font-weight="bold">Debt</text>
  </g>
  
  <g transform="translate(350, 450)">
    <rect x="0" y="0" width="60" height="40" rx="5" fill="#F59E0B" opacity="0.7"/>
    <text x="30" y="25" text-anchor="middle" fill="white" font-family="Arial, sans-serif" font-size="10" font-weight="bold">Asset</text>
  </g>
  
  <g transform="translate(450, 450)">
    <rect x="0" y="0" width="60" height="40" rx="5" fill="#10B981" opacity="0.7"/>
    <text x="30" y="25" text-anchor="middle" fill="white" font-family="Arial, sans-serif" font-size="10" font-weight="bold">Utility</text>
  </g>
  
  <!-- Title -->
  <text x="600" y="100" text-anchor="middle" fill="white" font-family="Arial, sans-serif" font-size="48" font-weight="bold">ERC-3643</text>
  <text x="600" y="140" text-anchor="middle" fill="#CBD5E0" font-family="Arial, sans-serif" font-size="24">استاندارد اوراق بهادار دیجیتال</text>
</svg>
