<svg width="1200" height="630" viewBox="0 0 1200 630" fill="none" xmlns="http://www.w3.org/2000/svg">
  <rect width="1200" height="630" fill="#1A202C"/>
  <g opacity="0.8">
    <circle cx="200" cy="150" r="80" fill="#3B82F6"/>
    <circle cx="1000" cy="480" r="100" fill="#8B5CF6"/>
    <rect x="100" y="300" width="120" height="120" rx="15" fill="#EC4899"/>
    <path d="M600 100L700 200L600 300L500 200L600 100Z" fill="#F59E0B"/>
    <path d="M400 500L500 600L400 700L300 600L400 500Z" fill="#10B981"/>
  </g>
  
  <!-- Solidity Logo -->
  <g transform="translate(400, 200)">
    <circle cx="0" cy="0" r="60" fill="#3B82F6" opacity="0.9"/>
    <text x="0" y="15" text-anchor="middle" fill="white" font-family="Arial, sans-serif" font-size="24" font-weight="bold">S</text>
  </g>
  
  <!-- Code Blocks -->
  <g transform="translate(200, 350)">
    <rect x="0" y="0" width="300" height="200" rx="10" fill="#2D3748" opacity="0.9"/>
    <rect x="20" y="20" width="260" height="15" rx="5" fill="#4A5568"/>
    <rect x="20" y="45" width="200" height="15" rx="5" fill="#4A5568"/>
    <rect x="20" y="70" width="180" height="15" rx="5" fill="#4A5568"/>
    <rect x="20" y="95" width="220" height="15" rx="5" fill="#4A5568"/>
    <rect x="20" y="120" width="160" height="15" rx="5" fill="#4A5568"/>
    <rect x="20" y="145" width="240" height="15" rx="5" fill="#4A5568"/>
    <rect x="20" y="170" width="190" height="15" rx="5" fill="#4A5568"/>
  </g>
  
  <!-- Smart Contract Icon -->
  <g transform="translate(700, 300)">
    <rect x="0" y="0" width="200" height="120" rx="15" fill="#1F2937" stroke="#3B82F6" stroke-width="3"/>
    <circle cx="30" cy="30" r="8" fill="#10B981"/>
    <circle cx="60" cy="30" r="8" fill="#F59E0B"/>
    <circle cx="90" cy="30" r="8" fill="#EF4444"/>
    <rect x="20" y="50" width="160" height="8" rx="4" fill="#6B7280"/>
    <rect x="20" y="70" width="140" height="8" rx="4" fill="#6B7280"/>
    <rect x="20" y="90" width="120" height="8" rx="4" fill="#6B7280"/>
  </g>
  
  <!-- Blockchain Network -->
  <g transform="translate(50, 100)">
    <circle cx="0" cy="0" r="15" fill="#3B82F6"/>
    <circle cx="80" cy="0" r="15" fill="#8B5CF6"/>
    <circle cx="160" cy="0" r="15" fill="#EC4899"/>
    <circle cx="240" cy="0" r="15" fill="#F59E0B"/>
    <line x1="15" y1="0" x2="65" y2="0" stroke="#6B7280" stroke-width="2"/>
    <line x1="95" y1="0" x2="145" y2="0" stroke="#6B7280" stroke-width="2"/>
    <line x1="175" y1="0" x2="225" y2="0" stroke="#6B7280" stroke-width="2"/>
  </g>
  
  <!-- Title -->
  <text x="600" y="100" text-anchor="middle" fill="white" font-family="Arial, sans-serif" font-size="48" font-weight="bold">Solidity</text>
  <text x="600" y="140" text-anchor="middle" fill="#CBD5E0" font-family="Arial, sans-serif" font-size="24">زبان برنامه‌نویسی قراردادهای هوشمند</text>
</svg>
