<svg width="1200" height="630" viewBox="0 0 1200 630" fill="none" xmlns="http://www.w3.org/2000/svg">
  <rect width="1200" height="630" fill="#1A202C"/>
  <g opacity="0.8">
    <circle cx="150" cy="100" r="70" fill="#3B82F6"/>
    <circle cx="1050" cy="530" r="90" fill="#8B5CF6"/>
    <rect x="50" y="200" width="100" height="100" rx="10" fill="#F59E0B"/>
    <path d="M500 50L600 150L500 250L400 150L500 50Z" fill="#EC4899"/>
    <path d="M300 400L400 500L300 600L200 500L300 400Z" fill="#10B981"/>
  </g>
  
  <!-- RWA Tokenization Concept -->
  <g transform="translate(400, 200)">
    <rect x="-100" y="-50" width="200" height="100" rx="15" fill="#3B82F6" opacity="0.9"/>
    <text x="0" y="-10" text-anchor="middle" fill="white" font-family="Arial, sans-serif" font-size="18" font-weight="bold">RWA Tokenization</text>
    <text x="0" y="10" text-anchor="middle" fill="white" font-family="Arial, sans-serif" font-size="14">Real World Assets</text>
    <text x="0" y="30" text-anchor="middle" fill="white" font-family="Arial, sans-serif" font-size="12">Blockchain Technology</text>
  </g>
  
  <!-- Asset Icons -->
  <g transform="translate(200, 350)">
    <rect x="0" y="0" width="60" height="40" rx="5" fill="#10B981" opacity="0.8"/>
    <text x="30" y="25" text-anchor="middle" fill="white" font-family="Arial, sans-serif" font-size="10" font-weight="bold">Real Estate</text>
  </g>
  
  <g transform="translate(300, 350)">
    <rect x="0" y="0" width="60" height="40" rx="5" fill="#F59E0B" opacity="0.8"/>
    <text x="30" y="25" text-anchor="middle" fill="white" font-family="Arial, sans-serif" font-size="10" font-weight="bold">Gold</text>
  </g>
  
  <g transform="translate(400, 350)">
    <rect x="0" y="0" width="60" height="40" rx="5" fill="#EC4899" opacity="0.8"/>
    <text x="30" y="25" text-anchor="middle" fill="white" font-family="Arial, sans-serif" font-size="10" font-weight="bold">Agriculture</text>
  </g>
  
  <g transform="translate(500, 350)">
    <rect x="0" y="0" width="60" height="40" rx="5" fill="#8B5CF6" opacity="0.8"/>
    <text x="30" y="25" text-anchor="middle" fill="white" font-family="Arial, sans-serif" font-size="10" font-weight="bold">Vehicles</text>
  </g>
  
  <!-- Blockchain Network -->
  <g transform="translate(100, 100)">
    <circle cx="0" cy="0" r="15" fill="#3B82F6"/>
    <circle cx="80" cy="0" r="15" fill="#8B5CF6"/>
    <circle cx="160" cy="0" r="15" fill="#EC4899"/>
    <circle cx="240" cy="0" r="15" fill="#F59E0B"/>
    <line x1="15" y1="0" x2="65" y2="0" stroke="#6B7280" stroke-width="2"/>
    <line x1="95" y1="0" x2="145" y2="0" stroke="#6B7280" stroke-width="2"/>
    <line x1="175" y1="0" x2="225" y2="0" stroke="#6B7280" stroke-width="2"/>
  </g>
  
  <!-- Title -->
  <text x="600" y="100" text-anchor="middle" fill="white" font-family="Arial, sans-serif" font-size="48" font-weight="bold">RWA Tokenization</text>
  <text x="600" y="140" text-anchor="middle" fill="#CBD5E0" font-family="Arial, sans-serif" font-size="24">راهنمای جامع برای تازه‌کارها</text>
</svg>